<?xml version="1.0" encoding="utf-8"?>
<!-- Generator: Adobe Illustrator 16.0.0, SVG Export Plug-In . SVG Version: 6.00 Build 0)  -->
<!DOCTYPE svg PUBLIC "-//W3C//DTD SVG 1.1//EN" "http://www.w3.org/Graphics/SVG/1.1/DTD/svg11.dtd">
<svg version="1.1" id="WORLD_TAEKWONDO" xmlns="http://www.w3.org/2000/svg" xmlns:xlink="http://www.w3.org/1999/xlink" x="0px"
	 y="0px" width="2125.984px" height="992.126px" viewBox="0 0 2125.984 992.126" enable-background="new 0 0 2125.984 992.126"
	 xml:space="preserve">
<g id="ICON">
	<path fill-rule="evenodd" clip-rule="evenodd" fill="#060505" d="M592.695,384.063c-4.594,13.473-10.773,26.274-16.742,39.155
		c-26.407,56.983-57.412,111.491-89.678,165.286c-24.791,41.33-50.752,81.938-77.271,122.189
		c-34.079,51.729-69.208,102.73-105.403,152.996c-12.563,17.448-25.45,34.663-38.267,51.927c-1.726,2.324-3.133,6.152-7.253,3.518
		c-3.646-2.331-4.628-5.523-3.019-9.753c6.461-16.972,12.753-34.007,19.129-51.012c19.774-52.743,39.575-105.477,59.332-158.226
		c16.063-42.889,32.073-85.798,48.138-128.686c0.458-1.225,1.274-2.314,1.923-3.467c1.158-0.62,2.376-1.152,3.468-1.875
		c50.532-33.427,101.255-66.584,145.991-107.875c18.385-16.969,35.073-35.304,48.654-56.426
		C585.467,395.954,587.748,389.177,592.695,384.063z"/>
	<path fill-rule="evenodd" clip-rule="evenodd" fill="#F6B61D" d="M592.695,384.063c-4.947,5.113-7.228,11.891-10.997,17.753
		c-13.582,21.122-30.269,39.457-48.654,56.426c-44.736,41.291-95.459,74.448-145.991,107.875c-1.092,0.723-2.31,1.255-3.468,1.875
		c4.269-14.679,10.311-28.717,15.615-43.018c14.994-40.428,30.186-80.782,45.282-121.172c4.937-13.206,9.82-26.434,14.728-39.651
		c0.46-0.597,0.92-1.194,1.38-1.791c13.483-4.788,26.318-11.078,39.254-17.109c40.253-18.767,79.696-39.086,117.739-62.054
		c0.821-0.495,1.832-0.676,2.754-1.003c1.286,15.201-2.369,29.703-6.404,44.114c-5.353,19.119-12.516,37.587-20.588,55.711
		c-0.785,0.52-1.406,1.096-0.747,2.123L592.695,384.063z"/>
	<path fill-rule="evenodd" clip-rule="evenodd" fill="#F6B61D" d="M146.578,441.134c55.086-0.981,108.835-10.768,161.941-24.698
		c41.979-11.013,82.95-25.073,123.278-41.055c1.684-0.668,3.305-1.644,5.241-1.398c-8.133,6.087-17.331,10.404-26.012,15.578
		c-44.457,26.493-87.881,54.483-126.955,88.637c-22.18,19.388-43.085,40.03-58.167,65.75c-1.925,3.282-3.64,6.688-5.427,10.05
		c-3.892,7.323-11.523,8.194-17.226,2.245c-15.223-15.877-29.063-32.794-39.771-52.098c-9.703-17.492-16.303-35.974-17.351-56.141
		C146.011,445.725,145.509,443.36,146.578,441.134z"/>
	<path fill-rule="evenodd" clip-rule="evenodd" fill="#283C88" d="M1127.481,72.101c3.363,1.536,6.116,3.904,5.726,7.78
		c-0.407,4.033-2.907,6.712-7.094,8.018c-35.345,11.022-70.467,22.729-105.49,34.735c-57.416,19.683-114.386,40.576-170.937,62.613
		c-20.318,7.917-40.544,16.069-60.812,24.114c-1.199-0.478-2.215,0.051-3.335,0.444c-52.571,18.48-106.232,32.428-161.605,39.575
		c-27.562,3.559-55.207,5.628-82.958,5.587c-30.27-0.045-60.399-2.439-90.229-7.93c-17.313-3.187-34.395-7.252-51.013-13.113
		c-1.67-0.589-4.868-0.808-2.001-3.903c6.105-0.501,11.181-3.909,16.612-6.165c41.967-17.433,84.968-31.86,128.51-44.746
		c77.608-22.969,156.501-40.544,235.949-55.688c48.205-9.189,96.627-17.141,145.149-24.523
		c52.576-8.001,105.311-14.788,158.035-21.682c11.496-1.503,23.023-2.757,34.537-4.113c0.795-0.093,1.698,0.101,1.956-1.004
		C1121.482,72.101,1124.481,72.101,1127.481,72.101z"/>
	<path fill-rule="evenodd" clip-rule="evenodd" fill="#D72227" d="M397.734,230.021c-2.866,3.096,0.332,3.314,2.001,3.903
		c16.618,5.861,33.699,9.927,51.013,13.113c29.83,5.49,59.958,7.885,90.229,7.93c27.75,0.041,55.396-2.028,82.958-5.587
		c55.373-7.147,109.034-21.095,161.605-39.575c1.12-0.394,2.137-0.922,3.335-0.444c-27.411,11.562-54.905,22.932-82.21,34.737
		c-28.869,12.481-57.56,25.38-86.328,38.096c-0.922,0.327-1.933,0.508-2.754,1.003c-38.043,22.968-77.485,43.287-117.739,62.054
		c-12.937,6.031-25.771,12.321-39.254,17.109c-2.859,0.284-5.32,1.328-7.085,3.704l0.104-0.04c-0.866,0.121-1.822,0.027-2.349,0.97
		c-0.148,0.253-0.364,0.343-0.646,0.271c-0.477,0.238-0.956,0.479-1.435,0.719c-0.501,0.198-1.002,0.396-1.504,0.596
		c-0.002,0.001-0.073,0.126-0.073,0.126c-3.521,1.759-7.042,3.519-10.564,5.277c-1.936-0.245-3.557,0.73-5.241,1.398
		c-40.329,15.981-81.299,30.042-123.278,41.055c-53.106,13.931-106.855,23.717-161.941,24.698
		c-0.737-18.561,1.719-36.744,6.734-54.579c9.58-34.07,27.682-63.349,50.873-89.711c35.584-40.451,78.928-70.988,125.355-97.443
		c45.944-26.18,94.231-47.244,144.121-64.696c2.317-0.811,4.615-0.89,6.843-0.342c3.509,0.861,4.974,3.226,3.64,6.771
		c-1.188,3.153-3.175,5.814-5.561,8.197c-25.81,25.785-51.606,51.584-77.411,77.374C400.046,227.83,398.881,228.916,397.734,230.021
		z"/>
	<path fill-rule="evenodd" clip-rule="evenodd" fill="#1A9F4B" d="M103.25,188.639c0.418-17.565,7.167-39.678,25.451-57.317
		c21.16-20.415,55.138-18.531,74.125,3.897c13.77,16.267,20.443,34.981,21.302,56.083c0.916,22.482-4.149,43.21-18.234,61.078
		c-24.185,30.682-64.045,29.352-86.426-2.667C108.521,234.052,103.227,216.436,103.25,188.639z"/>
</g>
<g id="TAEKWONDO">
	<path fill-rule="evenodd" clip-rule="evenodd" fill="#5B5758" d="M2017.154,594.993c-10.34-18.649-32.027-28.254-55.481-26.51
		c-30.001,2.23-63.962,27.384-67.045,63.517c-1.745,20.451,5.081,42.486,27.272,52.991c10.429,4.936,21.406,6.162,32.89,5.461
		c37.386-2.285,67.963-34.291,67.942-71.508C2022.728,609.123,2021.089,602.091,2017.154,594.993z M1951.947,658.665
		c-15.31-0.655-24.992-13.722-22.563-30.452c2.775-19.127,26.814-33.218,44.347-25.993c9.077,3.739,14.692,12.059,14.644,21.695
		C1988.278,642.544,1970.545,659.462,1951.947,658.665z"/>
	<path fill-rule="evenodd" clip-rule="evenodd" fill="#5B5758" d="M1811.691,571.993c-12.316,0.267-24.65,0.248-36.965-0.069
		c-4.333-0.112-5.843,1.091-6.456,5.465c-2.28,16.244-5.031,32.422-7.617,48.622c-3.057,19.147-6.102,38.297-9.215,57.435
		c-0.443,2.732,0.206,3.746,3.217,3.653c7.32-0.224,14.652-0.072,21.979-0.073c5.329,0,10.664-0.172,15.986,0.028
		c30.314,1.146,59.056-21.985,67.186-49.022C1870.278,603.211,1847.794,571.212,1811.691,571.993z M1791.781,658.712
		c-2.296-0.119-3.366-0.514-2.941-3.079c2.843-17.144,5.698-34.286,8.32-51.464c0.451-2.954,1.504-3.775,4.38-3.85
		c14.266-0.368,23.568,5.848,26.127,17.812c0.343,1.604,0.352,3.28,0.516,4.923C1828.056,644.271,1812.222,659.778,1791.781,658.712
		z"/>
	<path fill-rule="evenodd" clip-rule="evenodd" fill="#5B5758" d="M1681.815,636.202c3.32-20.957,6.521-40.731,9.512-60.538
		c0.406-2.694,1.191-3.726,3.98-3.679c8.494,0.143,16.997,0.218,25.486-0.029c3.48-0.101,4.188,0.995,3.652,4.234
		c-2.867,17.326-5.581,34.678-8.344,52.02c-2.896,18.175-5.902,36.333-8.578,54.538c-0.5,3.4-1.613,4.438-4.962,4.346
		c-7.99-0.217-15.996-0.223-23.985,0.015c-2.911,0.087-4.385-1.01-5.823-3.361c-12.126-19.817-24.371-39.563-36.596-59.32
		c-0.234-0.379-0.669-0.634-1.427-1.328c-3.143,19.773-6.387,39.109-9.17,58.512c-0.628,4.377-2,5.707-6.404,5.527
		c-9.113-0.372-18.252-0.112-27.57-0.112c5.958-37.543,11.897-74.701,17.664-111.885c0.421-2.715,1.466-3.169,3.807-3.142
		c8.162,0.096,16.335,0.262,24.484-0.072c3.363-0.139,5.119,1.183,6.708,3.77c11.726,19.093,23.513,38.147,35.288,57.21
		C1680.045,633.727,1680.633,634.497,1681.815,636.202z"/>
	<path fill-rule="evenodd" clip-rule="evenodd" fill="#5B5758" d="M1528.673,571.672c-19.784-6.954-39.059-4.035-57.014,6.188
		c-23.263,13.244-36.835,32.835-37.349,56.511c0.092,23.386,7.172,39.238,24.591,49.164c10.93,6.229,22.942,7.672,35.519,6.954
		c30.826-1.759,57.614-24.011,65.813-53.63C1568.552,606.805,1556.48,581.446,1528.673,571.672z M1527.495,629.502
		c-3.89,16.963-18.353,29.222-34.418,29.173c-14.371-0.043-24.404-10.694-24.279-25.776c0.18-21.526,25.754-38.868,45.045-30.544
		C1524.972,607.156,1530.223,617.601,1527.495,629.502z"/>
	<path fill-rule="evenodd" clip-rule="evenodd" fill="#5B5758" d="M1292.071,638.697c3.678-7.507,6.715-13.648,9.704-19.813
		c7.166-14.785,14.396-29.541,21.369-44.417c1.027-2.188,2.25-2.461,4.188-2.446c6.333,0.045,12.679,0.27,18.99-0.086
		c3.496-0.197,4.546,1.218,4.964,4.273c2.003,14.614,4.095,29.218,6.188,43.819c0.834,5.819,1.758,11.626,2.849,18.801
		c6.75-14.939,12.944-28.616,19.111-42.307c3.199-7.104,6.337-14.234,9.53-21.341c0.736-1.643,1.302-3.236,3.793-3.203
		c10.473,0.139,20.948,0.059,32.197,0.059c-3.354,7.215-6.409,13.939-9.589,20.604c-14.365,30.118-28.784,60.211-43.123,90.342
		c-1.311,2.754-2.648,4.338-6.237,4.167c-8.314-0.396-16.659-0.217-24.987-0.069c-2.657,0.048-3.633-0.654-4.016-3.473
		c-2.478-18.209-5.203-36.386-7.877-54.781c-2.081,0.323-2.167,2.231-2.815,3.521c-8.441,16.784-16.94,33.541-25.144,50.44
		c-1.636,3.369-3.516,4.474-7.178,4.33c-7.819-0.307-15.665-0.269-23.488-0.006c-3.233,0.108-4.095-1.021-4.504-4.042
		c-3.428-25.299-7.048-50.571-10.578-75.857c-1.49-10.674-2.786-21.377-4.447-32.024c-0.369-2.367-0.41-3.234,2.304-3.2
		c9.497,0.122,18.996,0.123,28.492-0.006c2.423-0.032,2.936,0.835,3.174,3.106c1.741,16.645,3.66,33.271,5.532,49.902
		C1290.93,629.035,1291.415,633.077,1292.071,638.697z"/>
	<path fill-rule="evenodd" clip-rule="evenodd" fill="#5B5758" d="M1148.47,612.009c6.06-4.425,10.345-10.586,15.472-15.918
		c6.673-6.938,13.02-14.189,19.512-21.301c1.469-1.608,2.925-2.853,5.467-2.822c12.637,0.148,25.274,0.067,38.311,0.067
		c-0.592,2.129-2.225,3.074-3.413,4.267c-15.634,15.691-31.193,31.459-47.066,46.905c-3.14,3.056-2.76,4.851-0.583,8.079
		c12.254,18.176,24.269,36.515,36.345,54.769c-1.038,1.653-2.51,0.923-3.687,0.93c-11.158,0.066-22.319-0.081-33.474,0.115
		c-3.351,0.06-5.275-0.876-7.068-3.894c-7.95-13.382-16.239-26.561-25.023-40.813c-1.697,10.431-3.229,19.797-4.74,29.167
		c-0.688,4.255-1.521,8.499-1.931,12.782c-0.218,2.27-1.188,2.719-3.161,2.707c-9.16-0.058-18.321-0.139-27.478,0.038
		c-3.055,0.06-2.661-1.611-2.373-3.438c3.303-20.954,6.62-41.906,9.946-62.858c2.311-14.558,4.736-29.098,6.888-43.68
		c0.541-3.669,1.564-5.362,5.771-5.192c9.299,0.376,18.624,0.117,27.94,0.117c-1.266,13.638-4.878,26.655-5.584,40.079
		c-0.168,0.042-0.334,0.084-0.502,0.127c0.078,0.027,0.199,0.1,0.227,0.073C1148.352,612.233,1148.404,612.114,1148.47,612.009z"/>
	<path fill-rule="evenodd" clip-rule="evenodd" fill="#5B5758" d="M992.563,687.023c3.11-19.782,6.148-39.218,9.224-58.647
		c2.798-17.665,5.7-35.314,8.391-52.996c0.406-2.664,1.283-3.431,3.992-3.413c19.977,0.127,39.956,0.149,59.933-0.013
		c3.296-0.026,3.959,0.969,3.439,3.967c-1.215,7.012-2.268,14.054-3.271,21.101c-0.373,2.626-1.572,3.474-4.267,3.421
		c-8.987-0.174-17.981,0.049-26.968-0.117c-2.907-0.054-4.041,0.813-4.481,3.777c-1.626,10.943-1.739,10.927,9.406,10.927
		c6.159,0,12.32,0.044,18.479-0.022c2.159-0.023,3.212,0.009,2.608,2.953c-1.461,7.131-2.501,14.364-3.341,21.599
		c-0.344,2.965-1.348,3.943-4.313,3.884c-8.32-0.168-16.651,0.104-24.968-0.137c-3.254-0.094-4.273,1.137-4.729,4.127
		c-1.709,11.212-1.792,11.204,9.49,11.227c6.327,0.013,12.655,0.109,18.979-0.035c2.93-0.068,4.49,0.088,3.687,3.906
		c-1.463,6.962-2.296,14.057-3.369,21.1c-0.29,1.909-0.647,3.44-3.226,3.433C1035.799,686.993,1014.339,687.023,992.563,687.023z"/>
	<path fill-rule="evenodd" clip-rule="evenodd" fill="#5B5758" d="M942.462,577.536c-0.212-0.973-0.755-1.929-0.736-2.885
		c0.052-2.735-1.676-2.644-3.607-2.633c-8.156,0.045-16.345,0.45-24.459-0.134c-5.514-0.397-8.093,1.68-10.591,6.371
		c-14.262,26.776-28.909,53.349-43.396,80.007c-5.108,9.397-10.132,18.842-15.462,28.761c11.362,0,21.989-0.056,32.616,0.047
		c2.166,0.021,3.289-0.853,4.243-2.658c2.398-4.544,5.155-8.91,7.371-13.538c1.139-2.379,2.569-2.938,4.993-2.898
		c8.321,0.132,16.646,0.052,24.969,0.051c8.754-0.001,8.757-0.002,10.568,8.332c0.563,2.594,1.185,5.178,1.637,7.791
		c0.372,2.157,1.375,2.959,3.673,2.932c10.474-0.126,20.95-0.056,31.961-0.056C958.222,650.09,950.346,613.812,942.462,577.536z
		 M919.575,641.685c-4.95-0.169-9.903-0.229-14.855-0.334c0.403-4.745,3.504-8.348,5.354-12.473
		c2.02-4.503,4.385-8.851,7.263-14.588c1.539,9.071,2.809,16.871,4.219,24.646C921.889,640.772,921.769,641.759,919.575,641.685z"/>
	<path fill-rule="evenodd" clip-rule="evenodd" fill="#5B5758" d="M846.388,572.034c-1.325,8.51-2.706,16.656-3.807,24.841
		c-0.374,2.779-1.589,3.614-4.233,3.55c-5.493-0.135-10.995,0.086-16.486-0.076c-2.857-0.084-3.971,0.756-4.441,3.803
		c-4.068,26.358-8.43,52.673-12.482,79.033c-0.488,3.179-1.532,3.989-4.592,3.914c-8.488-0.207-16.988-0.181-25.478-0.015
		c-2.985,0.059-3.606-0.799-3.126-3.72c4.24-25.832,8.265-51.699,12.537-77.526c0.717-4.333-0.13-5.988-4.845-5.549
		c-4.789,0.447-9.657-0.045-14.478,0.159c-2.813,0.119-3.926-0.673-3.411-3.589c1.294-7.342,2.521-14.696,3.654-22.064
		c0.297-1.923,0.862-2.816,3.063-2.81C794.228,572.062,820.193,572.034,846.388,572.034z"/>
</g>
<g id="WORLD">
	<path fill-rule="evenodd" clip-rule="evenodd" fill="#5B5758" d="M1410.748,372.537c-10.338-2.668-20.836-1.479-29.919-1.825
		c-8.515,0-15.679,0.15-22.832-0.069c-3.178-0.098-4.798,0.479-5.021,4.107c-0.272,4.453-1.251,8.864-1.959,13.288
		c-5.074,31.736-10.128,63.477-15.301,95.197c-0.391,2.396,0.261,2.89,2.426,2.835c16.286-0.406,32.632,1.102,48.857-0.742
		c31.593-3.592,57.629-31.33,59.761-63.136C1448.332,398.738,1433.508,378.411,1410.748,372.537z M1377.021,457.759
		c-3.14,0.095-4.079-0.851-3.581-3.927c2.839-17.49,5.592-34.994,8.318-52.503c0.2-1.282,0.369-2.216,1.942-2.264
		c13.952-0.425,28.913,4.269,28.745,23.577C1411.802,441.172,1400.771,457.04,1377.021,457.759z"/>
	<path fill-rule="evenodd" clip-rule="evenodd" fill="#5B5758" d="M1266.71,486.05c-9.822,0.001-19.646-0.098-29.465,0.06
		c-3.107,0.05-4.438-0.419-3.844-4.05c4.576-27.955,8.977-55.94,13.426-83.917c1.223-7.69,2.594-15.364,3.554-23.088
		c0.412-3.308,1.575-4.511,4.989-4.417c8.151,0.225,16.315,0.2,24.467-0.007c3.406-0.086,4.279,0.909,3.724,4.301
		c-3.56,21.733-6.939,43.498-10.389,65.25c-0.751,4.741-1.396,9.507-2.37,14.202c-0.595,2.863,0.49,3.387,3.034,3.354
		c8.988-0.114,17.98,0.007,26.968-0.11c2.799-0.036,4.376,0.303,3.725,3.798c-1.334,7.162-2.419,14.376-3.393,21.598
		c-0.354,2.618-1.614,3.095-3.962,3.07C1287.021,485.988,1276.864,486.049,1266.71,486.05z"/>
	<path fill-rule="evenodd" clip-rule="evenodd" fill="#5B5758" d="M1201.248,392.082c-2.165-12.09-13.993-20.541-28.68-20.954
		c-15.137-0.426-30.295-0.101-45.431-0.533c-4.691-0.134-6.146,1.409-6.781,5.886c-2.308,16.231-5.05,32.402-7.636,48.596
		c-3.057,19.145-6.095,38.293-9.208,57.428c-0.456,2.803,0.342,3.682,3.275,3.615c8.654-0.196,17.318-0.17,25.975-0.011
		c2.751,0.051,3.571-0.85,3.955-3.567c1.589-11.226,3.498-22.407,5.292-33.613c1.416,0.141,1.41,1.108,1.747,1.81
		c5.175,10.758,10.365,21.508,15.521,32.274c0.795,1.659,1.352,3.125,3.801,3.099c12.605-0.133,25.212-0.062,38.568-0.062
		c-9.553-15.741-18.778-30.944-28.073-46.26C1194.905,433.649,1205.01,413.091,1201.248,392.082z M1157.601,419.208
		c-2.51,0.776-5.168,1.075-7.759,1.593c-2.97,0.447-3.405-1.087-2.98-3.534c0.989-5.701,1.965-11.406,2.8-17.131
		c0.313-2.143,1.016-3.453,3.438-3.085c0.487,0.073,0.996,0.005,1.495,0.01c7.534,0.081,11.982,2.797,12.782,7.802
		C1168.36,411.022,1164.291,417.138,1157.601,419.208z"/>
	<path fill-rule="evenodd" clip-rule="evenodd" fill="#5B5758" d="M1058.18,381.137c-17.52-15.165-37.9-17.163-59.371-10.977
		c-29.44,8.483-56.191,35.348-52.604,73.834c1.285,13.794,6.791,25.577,17.95,34.23c10.677,8.279,22.954,11.581,36.335,11.179
		c34.524,1.006,66.164-24.306,72.851-60.417C1076.772,410.461,1072.872,393.854,1058.18,381.137z M1039.494,426.663
		c-2.486,14.813-14.488,27.555-28.598,30.361c-17.152,3.412-30.397-7.448-30.395-24.92c0.005-21.567,24.126-38.553,44.167-31.102
		C1035.356,404.977,1041.383,415.409,1039.494,426.663z"/>
	<path fill-rule="evenodd" clip-rule="evenodd" fill="#5B5758" d="M871.826,437.937c7.27-16.212,13.964-31.154,20.671-46.091
		c2.717-6.055,5.473-12.091,8.186-18.146c0.76-1.694,1.419-3.078,3.835-3.045c10.485,0.146,20.972,0.063,32.162,0.063
		c-3.86,8.21-7.438,15.954-11.127,23.645c-14.212,29.623-28.506,59.207-42.601,88.886c-1.074,2.261-2.185,2.862-4.435,2.837
		c-8.331-0.093-16.67-0.224-24.993,0.052c-3.694,0.122-4.672-1.198-5.131-4.7c-2.242-17.106-4.806-34.171-7.281-51.246
		c-0.158-1.088-0.534-2.145-0.933-3.697c-9.048,18.145-18.045,35.726-26.546,53.545c-2.263,4.746-4.904,6.511-10.128,6.14
		c-7.129-0.508-14.326-0.258-21.486-0.064c-2.865,0.077-4.128-0.701-4.542-3.692c-4.908-35.466-9.92-70.918-14.934-106.37
		c-0.507-3.582-0.215-5.713,4.542-5.465c8.476,0.442,16.992,0.214,25.488,0.063c2.917-0.052,3.783,0.73,4.085,3.854
		c1.886,19.473,4.113,38.911,6.259,58.358c0.133,1.205,0.537,2.381,1.001,4.374c9.816-20.452,19.417-40.104,28.641-59.933
		c2.21-4.751,4.582-7.385,10.292-6.721c5.261,0.612,10.651,0.181,15.981,0.094c2.366-0.039,3.412,0.579,3.783,3.277
		C865.485,394.813,868.586,415.641,871.826,437.937z"/>
</g>
</svg>
