<?xml version="1.0" standalone="no"?>
<!DOCTYPE svg PUBLIC "-//W3C//DTD SVG 20010904//EN"
 "http://www.w3.org/TR/2001/REC-SVG-20010904/DTD/svg10.dtd">
<svg version="1.0" xmlns="http://www.w3.org/2000/svg"
 width="492.000000pt" height="492.000000pt" viewBox="0 0 492.000000 492.000000"
 preserveAspectRatio="xMidYMid meet">
<metadata>
Created by potrace 1.14, written by Peter Selinger 2001-2017
</metadata>
<g transform="translate(0.000000,492.000000) scale(0.100000,-0.100000)"
fill="#000000" stroke="none">
<path d="M410 2983 c-236 -61 -398 -260 -406 -498 -6 -161 43 -290 150 -399
109 -109 212 -156 362 -162 164 -6 292 43 406 158 173 175 207 442 82 656 -65
110 -203 212 -334 246 -71 18 -190 18 -260 -1z"/>
<path d="M2342 2725 c-36 -16 -71 -78 -66 -120 2 -22 -2 -25 -27 -25 -27 0
-29 -2 -29 -40 0 -37 2 -40 29 -40 l29 0 0 -137 c0 -76 0 -146 1 -155 1 -15
11 -18 54 -18 l53 0 -1 138 c-1 173 -1 172 41 172 19 0 34 3 35 8 8 58 4 72
-21 73 -14 1 -30 1 -36 0 -16 -2 -23 32 -12 53 5 10 22 16 42 16 31 0 34 3 41
36 3 20 4 39 1 42 -13 12 -103 10 -134 -3z"/>
<path d="M1481 2708 c-102 -29 -149 -140 -95 -222 21 -33 80 -59 191 -86 48
-12 73 -33 73 -61 0 -23 -34 -59 -57 -60 -73 -5 -118 12 -131 49 -8 24 -14 27
-60 28 -48 0 -52 -1 -52 -23 0 -50 49 -111 105 -133 42 -17 137 -21 182 -8 79
21 124 75 125 148 1 80 -57 131 -182 160 -74 17 -100 36 -100 70 0 34 19 51
63 57 44 6 85 -11 99 -42 10 -22 16 -24 62 -22 48 2 51 3 48 27 -14 97 -146
154 -271 118z"/>
<path d="M3101 2700 c-4 -8 -6 -28 -6 -45 0 -33 -11 -30 131 -34 l30 -1 -1
-202 c-1 -112 1 -209 3 -215 3 -8 23 -13 56 -13 l52 0 -1 215 c0 184 2 215 15
216 8 0 44 1 80 2 l65 2 1 43 c1 25 -3 42 -10 43 -6 1 -100 2 -209 3 -168 1
-200 -1 -206 -14z"/>
<path d="M1927 2575 c-20 -7 -44 -19 -53 -26 -16 -13 -48 -69 -42 -74 2 -2 24
-5 51 -8 37 -4 50 -1 60 13 28 40 103 36 113 -7 9 -32 -1 -40 -61 -48 -116
-14 -161 -40 -174 -96 -27 -120 120 -196 218 -113 l28 23 -3 -24 c-2 -24 0
-25 53 -25 l54 0 -3 159 c-3 142 -5 161 -23 181 -47 51 -142 71 -218 45z m133
-239 c0 -41 -37 -76 -81 -76 -29 0 -59 22 -59 45 0 16 27 45 43 46 26 2 72 11
76 15 13 12 21 0 21 -30z"/>
<path d="M2630 2577 c-74 -25 -117 -80 -127 -166 -12 -99 39 -193 119 -217 59
-19 144 -9 189 21 43 28 68 73 48 86 -16 10 -89 10 -89 0 0 -16 -65 -39 -93
-34 -31 6 -67 46 -67 74 0 17 9 19 108 18 180 -1 161 -7 156 53 -8 85 -46 139
-114 163 -50 18 -81 18 -130 2z m123 -98 c17 -22 23 -48 10 -50 -13 -1 -127
-1 -140 0 -22 2 -14 28 17 54 36 31 86 29 113 -4z"/>
<path d="M3640 2576 c-75 -33 -111 -90 -116 -179 -4 -98 32 -162 113 -199 47
-21 125 -18 174 7 106 55 130 222 47 326 -36 45 -161 71 -218 45z m126 -98
c48 -49 33 -190 -21 -204 -69 -17 -110 26 -110 116 0 51 4 63 28 88 33 35 69
35 103 0z"/>
<path d="M4012 2582 l-34 -3 4 -157 c4 -194 11 -209 106 -232 44 -11 98 7 128
43 l24 29 -4 -36 -5 -36 54 0 55 0 0 198 0 198 -37 -2 c-21 -1 -46 -3 -55 -3
-16 -1 -18 -14 -18 -129 0 -115 -2 -130 -20 -150 -30 -32 -84 -30 -106 3 -13
20 -16 50 -15 149 1 138 3 135 -77 128z"/>
<path d="M4434 2579 c-3 -5 -7 -300 -5 -366 1 -21 6 -23 54 -23 l54 0 -2 108
c-2 165 14 197 96 194 l36 -2 -2 48 -2 47 -39 -1 c-30 -1 -44 -9 -67 -35 -24
-27 -28 -30 -24 -13 2 12 1 27 -3 34 -8 12 -89 20 -96 9z"/>
<path d="M4745 2286 c-14 -14 -25 -32 -25 -41 0 -27 45 -65 72 -60 25 5 58 39
58 60 0 19 -32 52 -57 60 -17 4 -30 -1 -48 -19z"/>
</g>
</svg>
