<svg width="54" height="55" viewBox="0 0 54 55" fill="none" xmlns="http://www.w3.org/2000/svg">
<rect y="0.637787" width="54" height="53.896" rx="12" fill="#FFFCF9"/>
<path d="M31.496 28.3666C31.496 28.4388 31.618 28.497 31.7671 28.497C31.9159 28.497 32.1428 28.5814 32.271 28.6839C32.3996 28.7864 32.5721 28.7864 32.6542 28.6839C32.7366 28.5818 32.7026 28.497 32.5796 28.497C32.4567 28.497 32.2841 28.4388 32.1964 28.3666C32.1091 28.2952 31.9159 28.2364 31.7671 28.2364C31.6176 28.2364 31.496 28.2956 31.496 28.3666Z" fill="#FF7B29"/>
<path d="M30.5437 28.106C30.6364 28.1773 30.7288 28.2866 30.7494 28.348C30.7494 28.348 30.7494 28.348 30.936 28.2365C31.1232 28.1247 31.1232 28.1247 31.1232 28.1247C31.3285 28.0356 31.6649 27.8179 31.8705 27.6401C31.8705 27.6401 31.8705 27.6401 31.497 27.6401C31.2726 27.6401 31.2726 27.6401 31.2726 27.6401C30.9644 27.6401 30.6367 27.6401 30.5441 27.6401C30.4517 27.6401 30.3762 27.7152 30.3762 27.8074C30.3759 27.8999 30.4514 28.0341 30.5437 28.106Z" fill="#FF7B29"/>
<path d="M22.2299 34.1374C22.2299 34.1287 22.2299 34.1287 22.2299 34.1287C22.3472 33.9543 22.443 33.7276 22.443 33.6248C22.443 33.5227 22.4246 33.3841 22.4015 33.3171C22.379 33.2505 22.2552 33.2885 22.1272 33.4015C21.9987 33.5143 21.8517 33.6317 21.8006 33.6625C21.7491 33.6933 21.7073 33.8198 21.7073 33.9425C21.7073 33.9425 21.7073 33.9425 21.7073 34.0169C21.7073 34.0913 21.8377 34.2776 21.8748 34.3523C21.9126 34.4268 22.024 34.5759 22.0336 34.6877C22.043 34.7995 22.043 34.7995 22.043 34.7995C22.1148 34.9534 22.2489 35.0795 22.3404 35.0795C22.3404 35.0795 22.3404 35.0795 22.36 35.0795C22.3797 35.0795 22.3981 34.874 22.4355 34.8182C22.4727 34.7618 22.4727 34.7618 22.4727 34.7618C22.4112 34.5772 22.3014 34.3006 22.2299 34.1462C22.2299 34.1465 22.2299 34.1465 22.2299 34.1374Z" fill="#FF7B29"/>
<path d="M22.9776 33.6995C22.8843 33.7182 22.8843 33.7182 22.8843 33.7182C22.7916 33.7695 22.6824 33.933 22.6412 34.0816C22.6003 34.2308 22.5751 34.4363 22.585 34.5388C22.585 34.5388 22.585 34.5388 22.7161 34.464C22.8465 34.3896 22.9776 34.3525 22.9776 34.2404C22.9776 34.1286 23.0709 33.6808 22.9776 33.6995Z" fill="#FF7B29"/>
<path d="M15.4318 23.8179C15.7089 23.4563 15.9747 23.1237 16.0225 23.0786C16.0696 23.0337 16.2156 22.8213 16.3473 22.6052C16.3473 22.6052 16.3473 22.6052 16.3844 22.5305C16.4219 22.456 16.4219 22.456 16.4219 22.456C16.3192 22.3134 16.2066 22.195 16.1716 22.195C16.1367 22.195 16.0643 22.1873 16.0106 22.1767C16.0106 22.1767 16.0106 22.1767 15.9732 22.195C15.9357 22.214 15.8986 22.2324 15.8615 22.3262C15.8237 22.419 15.7866 22.438 15.7679 22.5868C15.7491 22.736 15.488 23.1648 15.4689 23.2393C15.4499 23.3143 15.4499 23.3143 15.4499 23.3143C15.3579 23.6214 15.2146 24.0664 15.1323 24.3025C15.1323 24.3025 15.1323 24.3025 15.2817 24.0602C15.4318 23.8179 15.4318 23.8179 15.4318 23.8179Z" fill="#FF7B29"/>
<path fill-rule="evenodd" clip-rule="evenodd" d="M24.2389 16.1311C16.9273 16.1311 11 22.047 11 29.3445C11 36.6421 16.9273 42.558 24.2389 42.558C31.5506 42.558 37.4779 36.6421 37.4779 29.3445C37.4779 29.3033 37.4777 29.2621 37.4773 29.221C37.4661 27.9929 37.2869 26.8048 36.9617 25.6786C36.8873 25.4209 36.6151 25.2792 36.358 25.3555C36.0895 25.4352 35.9412 25.721 36.0181 25.9903C36.2567 26.8266 36.4083 27.6995 36.4626 28.5987C36.3159 28.5359 36.3159 28.5361 36.3159 28.5361C36.3159 28.5361 36.353 28.6105 36.3159 28.76C36.2919 28.8564 36.2207 28.7815 36.2139 28.7869C36.2102 28.7899 36.2257 28.8169 36.2788 28.9092C36.3654 29.0606 36.3766 29.0239 36.3853 29.0245C36.3916 29.0249 36.3966 29.0449 36.4282 29.1705L36.4849 29.3972C36.4845 29.4831 36.4833 29.5688 36.4811 29.6542C36.4763 29.6552 36.4711 29.6557 36.4654 29.6557C36.3534 29.6557 36.2136 29.2452 36.2136 29.2452C36.2136 29.2452 36.017 28.7974 35.9047 28.7229L35.7926 28.6485C35.7926 28.6485 35.6432 28.4993 35.6061 28.3502C35.5903 28.2869 35.6215 28.2438 35.6483 28.2065C35.6849 28.1559 35.7135 28.1162 35.6061 28.0518C35.5128 27.9961 35.5315 28.024 35.5408 28.038C35.5502 28.052 35.5502 28.052 35.4195 27.9403C35.2488 27.7945 35.126 27.7596 35.03 27.7324C34.9787 27.7178 34.9351 27.7054 34.8959 27.6794C34.8476 27.6472 34.8132 27.684 34.7808 27.7186C34.7378 27.7646 34.6983 27.8069 34.6344 27.6794C34.5636 27.5381 34.6717 27.5753 34.6762 27.5655C34.6788 27.5598 34.6462 27.5381 34.5224 27.4558C34.1863 27.2312 33.9994 27.1194 33.9994 27.1194C33.9994 27.1194 33.9623 27.3433 33.7373 27.1194C33.5136 26.8961 33.2521 26.8588 33.2521 26.8588C33.2521 26.8588 33.2147 26.7463 33.0278 26.5975C32.9164 26.5087 32.9376 26.5519 32.9335 26.5544C32.9308 26.5561 32.9164 26.5389 32.8407 26.4484L32.8406 26.4483L32.6537 26.225L32.3176 26.0011H32.1682L32.0558 25.8145L31.7569 25.4421V25.1805C31.7569 25.1805 31.9441 25.4421 31.9441 25.1805C31.9441 25.0395 31.9332 25.04 31.929 25.035C31.9255 25.0307 31.9269 25.0224 31.9441 24.9195L31.9813 24.6959L31.7569 24.3969V23.875C31.7569 23.875 31.5329 23.614 31.4209 23.5399C31.365 23.5027 31.4117 23.5492 31.4351 23.5725C31.4585 23.5958 31.4585 23.5958 31.3091 23.4655L31.0102 23.2042L30.599 22.8311V22.6819C30.599 22.6819 30.3378 22.8685 30.2258 22.6819C30.1138 22.4951 29.9643 22.3088 29.9643 22.3088V22.1597C29.9643 22.1597 29.8145 22.458 29.74 22.1597C29.6651 21.8616 29.74 21.7125 29.74 21.7125C29.74 21.7125 29.5153 21.5259 29.4782 21.4141C29.4615 21.3644 29.4744 21.3147 29.4873 21.2649C29.5035 21.2028 29.5196 21.1407 29.4782 21.0784C29.4036 20.9666 29.2913 20.4814 29.2913 20.4814L28.9927 19.885C28.9927 19.885 29.0669 19.6617 28.9927 19.5499C28.9178 19.4381 28.8055 19.2142 28.8055 19.2142C28.8055 19.2142 29.0669 18.9906 28.8055 18.7293C28.6581 18.5823 28.6411 18.6007 28.6278 18.5984C28.6174 18.5966 28.6092 18.5823 28.5437 18.4681L28.5437 18.468C28.3942 18.2067 28.2822 17.9458 28.2822 17.9458L28.1072 17.7444C28.9867 18.0364 29.8219 18.4253 30.6001 18.8984C30.831 19.0387 31.1337 18.9815 31.2876 18.7594C31.4457 18.5312 31.3863 18.2168 31.1495 18.0719C29.1379 16.8408 26.7715 16.1311 24.2389 16.1311ZM22.4148 41.4323C20.6365 41.1672 18.9832 40.5206 17.5411 39.5785C17.5834 39.4934 17.5457 39.3857 17.5101 39.2844C17.4792 39.1961 17.4499 39.1125 17.4767 39.0529C17.5444 38.9037 17.4767 38.6804 17.4767 38.6804C17.4767 38.6804 16.9613 38.2703 16.7915 38.1959C16.7126 38.1613 16.6055 38.0364 16.492 37.891C16.5054 37.8717 16.5132 37.8601 16.5132 37.8601C16.5132 37.8601 16.5466 37.8228 16.7915 37.711C17.0365 37.5992 17.4767 37.3756 17.4767 37.3756C17.4767 37.3756 17.9326 37.2261 17.97 37.3756C18.0075 37.5247 18.3435 37.5992 18.3435 37.5992C18.3435 37.5992 18.493 37.7483 18.6796 37.8231C18.8668 37.8978 19.0908 38.0844 19.0908 38.0844C19.0908 38.0844 19.4269 38.1962 19.5767 38.047C19.6305 37.9933 19.7231 37.9443 19.823 37.8915C20.0005 37.7976 20.2011 37.6915 20.2488 37.5247C20.2877 37.3891 20.3367 37.2532 20.3801 37.1332C20.4201 37.0223 20.4553 36.9249 20.4731 36.8536C20.5109 36.7044 20.9589 36.1451 21.1084 35.9963C21.2579 35.8471 21.4444 35.5484 21.3327 35.3993C21.2204 35.2501 20.9218 34.877 20.8095 34.9514L20.6975 35.0262L20.1742 34.6534C20.1742 34.6534 19.7439 35.573 19.7723 35.5793C19.801 35.5858 19.9405 36.1084 19.7586 36.2199C19.6728 36.2726 19.6026 36.4248 19.5406 36.5593C19.471 36.7101 19.4117 36.8386 19.3523 36.7795C19.24 36.6677 19.5018 35.8474 19.5018 35.8474L18.8665 35.5796C18.8665 35.5796 18.4184 35.7973 18.605 35.5796C18.6902 35.4805 18.8066 35.3799 18.9115 35.2893C19.0364 35.1813 19.1451 35.0874 19.1654 35.0268C19.2029 34.915 19.772 34.2809 19.772 34.2809H20.2484C20.2484 34.2809 20.6597 34.4301 20.9212 34.2809C21.1827 34.1318 21.7062 33.6098 21.7062 33.6098V33.0876C21.7062 33.0876 22.0794 33.3115 22.1543 33.0876C22.2292 32.8636 22.1543 32.5855 22.1543 32.5855L22.0048 32.2676C22.0048 32.2676 22.0779 32.1268 22.359 32.0854C22.4879 32.0662 22.5735 32.1119 22.6356 32.1451C22.7087 32.1841 22.7491 32.2057 22.7893 32.0832C22.8642 31.8571 22.7893 31.5214 22.7893 31.5214L22.8227 31.0947C22.8227 31.0947 22.6398 31.6746 22.6773 31.0947C22.7 30.7431 22.5989 30.7829 22.5825 30.7606C22.5719 30.7462 22.5969 30.7056 22.7147 30.5149C22.864 30.2726 22.864 30.2446 22.864 30.2307C22.864 30.2167 22.864 30.2167 23.0133 30.0303C23.1833 29.8183 23.2567 29.6775 23.3295 29.5375C23.3848 29.4313 23.4398 29.3257 23.5366 29.1898C23.6452 29.0369 23.7175 28.8795 23.7783 28.7473C23.8432 28.606 23.8949 28.4934 23.9637 28.4455C24.0421 28.3903 24.0211 28.3418 23.9947 28.2809C23.9762 28.2382 23.9551 28.1895 23.9637 28.1281C23.9846 27.9789 23.9637 27.5317 23.9637 27.5317C23.9637 27.5317 23.686 26.9721 23.6112 26.8603C23.5858 26.822 23.5647 26.7838 23.542 26.7427C23.4981 26.6631 23.4481 26.5727 23.3494 26.4499L23.2002 26.2633C23.2002 26.2633 22.8639 26.3751 22.7515 26.2633C22.6392 26.1515 22.6395 26.1515 22.6395 26.1515H22.1162C22.0775 26.1515 22.0432 26.1426 22.0103 26.134C21.9481 26.1178 21.8906 26.1029 21.8176 26.1515C21.7059 26.2266 21.4067 26.338 21.4067 26.338L20.958 26.1191L20.5845 25.9653C20.5266 25.8114 20.5485 25.6375 20.5678 25.4847C20.5858 25.3418 20.6015 25.2174 20.5474 25.1453C20.5348 25.1286 20.5204 25.1091 20.5046 25.0877C20.3787 24.9173 20.161 24.6227 20.0612 24.6227C19.9495 24.6227 19.7714 24.4735 19.7714 24.4735V23.766L19.9492 23.3558L19.9863 23.1313C19.9863 23.1313 20.0609 22.7588 19.9863 22.5346C19.9603 22.4561 19.9382 22.3407 19.915 22.2193C19.8722 21.995 19.8253 21.7499 19.7417 21.6776C19.6129 21.5658 19.5386 21.1927 19.5386 21.1927L19.2394 20.5583C19.2394 20.5583 18.5673 20.7822 18.3426 20.8567C18.1186 20.9311 17.9317 21.1183 17.7822 21.491C17.7195 21.6473 17.6804 21.8103 17.6458 21.955C17.5978 22.1552 17.5582 22.3206 17.4758 22.3854C17.3341 22.4972 17.1472 22.6841 16.9978 22.8706C16.8483 23.0572 16.5122 23.5044 16.4748 23.6542C16.4374 23.8031 16.5494 24.7355 16.5494 24.7355C16.5494 24.7355 16.624 24.9964 16.4748 25.1456C16.3253 25.2948 15.8395 25.8167 15.7649 25.9656C15.7298 26.036 15.6033 26.2057 15.4754 26.3771C15.3319 26.5696 15.1867 26.7643 15.1671 26.8236C15.1297 26.9354 15.0554 27.4579 15.1671 27.3835C15.2791 27.3081 15.7275 27.0848 15.7275 27.0848C15.7275 27.0848 16.0639 27.57 15.9147 27.5327C15.7653 27.495 15.1671 27.6189 14.8307 27.8553C14.4947 28.0917 14.0463 28.6136 14.0463 28.6136V29.1907C14.0463 29.1907 14.2332 29.3224 14.3452 29.3595C14.4569 29.3969 14.7933 29.4342 14.7933 29.4342L15.0925 29.6955C15.0925 29.6955 15.8398 30.1801 15.5784 30.143C15.3169 30.106 14.3084 29.6955 14.3084 29.6955C14.3084 29.6955 13.6728 29.6585 13.5608 29.6955C13.4488 29.7329 12.8135 29.2823 12.7015 29.1907C12.6177 29.1217 12.4295 28.8541 12.2774 28.6378L12.2772 28.6376C12.2261 28.5649 12.179 28.498 12.1414 28.4464C12.1113 28.405 12.0751 28.3564 12.0366 28.305C12.5651 22.0413 17.8265 17.1221 24.2389 17.1221C25.2716 17.1221 26.2743 17.2497 27.2323 17.4899L27.386 17.7969C27.386 17.7969 27.3115 18.0205 27.4235 18.1323L27.5355 18.2441L27.6472 18.431V18.6916C27.6472 18.6916 27.4977 18.8785 27.6472 18.9529C27.7455 19.0021 27.7791 18.9221 27.7907 18.9252C27.7967 18.9268 27.7967 18.9509 27.7967 19.0277V19.2516C27.7967 19.2516 27.6098 19.4004 27.5352 19.5122C27.4877 19.5831 27.5155 19.5043 27.5136 19.5035C27.5124 19.5031 27.5014 19.5287 27.4603 19.624C27.3486 19.885 27.2734 20.2207 27.2734 20.2207L27.0119 20.4443V20.9292C27.0119 20.9292 27.0497 21.0407 27.0119 21.1908C26.9748 21.34 27.0119 21.5636 27.0119 21.5636C27.0119 21.5636 26.9002 21.6377 26.7876 21.7128C26.6759 21.7872 26.377 22.0482 26.377 22.0482C26.377 22.0482 26.5639 22.1597 26.377 22.2718C26.1897 22.3836 26.0777 22.4957 26.1155 22.6449C26.1392 22.7402 26.1172 22.622 26.1177 22.6219C26.1181 22.6218 26.1255 22.6591 26.1523 22.7924L26.1526 22.794C26.182 22.9409 26.2056 23.0241 26.2234 23.087C26.2509 23.1838 26.2646 23.2323 26.2646 23.3907C26.2646 23.5527 26.3219 23.5285 26.3301 23.5398C26.3351 23.5467 26.3215 23.5671 26.2646 23.6523C26.1152 23.8756 25.8911 24.3048 25.8911 24.3048C25.8911 24.3048 26.1526 24.5838 26.2646 24.6215C26.3211 24.6402 26.3776 24.6685 26.4437 24.7016C26.5088 24.7342 26.583 24.7714 26.6756 24.8086C26.8625 24.8828 27.3851 25.0693 27.3851 25.0693C27.3851 25.0693 27.6466 25.1811 27.7586 25.2185C27.8709 25.2558 28.2444 25.7781 28.2444 25.7781C28.2444 25.7781 28.2819 25.7781 28.6185 25.8899C28.9546 26.0017 29.0292 26.0391 29.1415 26.1506C29.2535 26.2624 29.5521 26.5237 29.5521 26.5237L29.6267 26.7099C29.6267 26.7099 29.739 26.5984 30.0754 26.6355C30.4114 26.6728 30.7104 26.9341 30.7104 26.9341C30.7104 26.9341 30.8973 26.9341 31.047 26.8597C31.1965 26.7853 31.4577 26.5984 31.4577 26.5984L31.7191 26.524L32.205 26.561L32.5413 26.7473L32.7279 27.158C32.7279 27.158 32.7654 27.3443 32.8774 27.4193C32.9891 27.4934 33.2883 27.7174 33.2883 27.7174L33.1389 28.1649C33.1389 28.1649 33.2883 28.3514 33.4375 28.2764C33.5869 28.2022 33.811 27.9413 33.811 27.9413C33.811 27.9413 33.923 27.8668 34.0353 27.9039C34.1473 27.9413 34.3346 28.0157 34.5211 28.2022C34.708 28.3885 34.7455 28.575 34.7455 28.6868C34.7455 28.7986 34.5211 29.2835 34.5211 29.2835L33.8862 29.7313H33.5127L33.1014 29.9179L32.6908 29.3953L32.3544 28.9855C32.3544 28.9855 31.9438 29.2464 32.0368 29.3579C32.1304 29.4704 32.2799 29.694 32.2799 29.694C32.2799 29.694 32.093 29.9923 32.0368 30.1041C32.0093 30.1588 31.9774 30.1956 31.9345 30.2452C31.8897 30.2969 31.8329 30.3624 31.7566 30.4766C31.6071 30.7005 31.5326 30.8123 31.458 30.9241C31.3831 31.0362 31.0845 31.5582 31.0845 31.5582L30.7853 31.7824L30.5238 32.1178L30.3372 32.304H30.0383L29.5147 32.5653H29.1786L29.4776 32.9378L29.6645 33.162C29.4776 33.3488 28.9549 33.46 28.9549 33.46C28.9549 33.46 28.4316 33.7587 28.4688 33.6469C28.5059 33.5351 28.9175 33.0125 28.9175 33.0125L28.6189 32.7889C28.6189 32.7889 28.2822 32.7145 28.2076 32.826C28.1327 32.9378 28.0956 33.199 28.0956 33.199L28.2076 33.6715V34.2065C28.2076 34.3927 28.2822 34.8773 28.3945 34.8029C28.5062 34.7281 28.6192 35.138 28.6192 35.138V35.6606L29.0298 35.2878C29.0298 35.2878 29.3284 35.3251 29.2913 35.4369C29.2541 35.5487 29.0669 35.6609 29.0669 35.6609L29.4779 35.9969C29.4779 35.9969 29.9262 36.2949 30.0011 36.1834C30.0757 36.0716 30.188 35.7733 30.188 35.7733L30.3749 35.3628V35.1015L30.5244 34.7288L30.9731 34.2812L31.1974 33.834C31.1974 33.834 31.2717 34.393 31.2717 34.5049C31.2717 34.6167 31.7575 35.0639 31.7575 35.0639L31.8695 35.5117C31.8695 35.5117 31.7201 35.81 31.7201 35.9218C31.7201 36.0333 31.5332 36.2572 31.3837 36.4064C31.2343 36.5556 30.8608 36.8542 30.7487 36.9284C30.6367 37.0028 30.3753 37.1523 30.3753 37.1523L30.4495 36.5185L29.9643 36.593L30.0389 36.9284L29.6276 37.1523L29.4036 37.7493C29.4036 37.7493 29.1793 38.2712 29.0672 38.1971C28.9555 38.1224 28.6937 37.7863 28.6937 37.7863L29.105 36.9664H29.4407L29.5528 36.6306C29.5528 36.6306 29.3658 36.5933 29.2164 36.4815C29.0669 36.3697 28.8058 36.0716 28.8058 36.0716L28.3571 36.4067V36.7051H28.021L27.7967 37.19L27.8716 37.5257C27.8716 37.5257 27.8716 37.6375 27.8341 37.7863L27.7967 37.9358L27.9461 38.2036V38.8679L28.1705 39.2774H28.8797L30.0386 39.8374H30.3375L30.438 39.8876C29.7195 40.3093 28.9541 40.66 28.1515 40.9299C28.1222 40.7233 28.0617 40.5131 27.9926 40.397C27.895 40.2329 27.723 40.0815 27.6095 40.0613L27.46 40.099C27.3105 40.1357 27.0116 40.5088 26.9374 40.6203C26.8625 40.7321 26.3392 41.0304 26.1897 41.1052L26.1223 41.1391C26.0281 41.1391 25.9342 41.1435 25.9142 41.1482L25.8911 41.1422L25.8088 41.1226C25.8874 41.131 26.0119 41.0245 26.0868 40.8841L26.3395 40.6954L26.6384 40.4714C26.7208 40.2572 26.7208 39.9554 26.6384 39.8003L26.4144 39.4272C26.3941 39.3245 26.3773 39.2071 26.3773 39.1656V39.0538C26.3773 38.9979 26.3865 38.8861 26.3958 38.7743L26.3958 38.7741C26.3964 38.7671 26.397 38.7601 26.3976 38.7531C26.4062 38.6486 26.4144 38.5472 26.4144 38.4948C26.4144 38.4389 26.4705 38.2617 26.5266 38.0845C26.5827 37.9073 26.6387 37.7301 26.6387 37.6742C26.6387 37.5627 26.7042 37.2622 26.7845 36.8942L26.7851 36.8913L27.011 36.7421C27.1676 36.6387 27.1242 36.5533 27.071 36.4485C27.0474 36.4021 27.0219 36.3519 27.011 36.2946C26.9966 36.2192 27.0365 36.1804 27.0718 36.146C27.1237 36.0956 27.1656 36.0549 27.011 35.9218C26.8577 35.7898 26.8338 35.8135 26.817 35.8092C26.8053 35.8063 26.797 35.7898 26.7511 35.6979C26.6838 35.5635 26.6838 35.5635 26.6461 35.6012C26.621 35.6263 26.5792 35.668 26.4896 35.6979L26.2793 35.7677C25.9411 36.1847 25.6721 36.5191 25.6796 36.5148C25.6743 36.5185 25.6693 36.5223 25.6618 36.5282C25.6608 36.5292 25.6598 36.53 25.6589 36.5307C25.658 36.5314 25.6572 36.5321 25.6565 36.5329L25.6479 36.5393L25.6375 36.5478L25.6303 36.554L25.5695 36.5992L25.5688 36.5998L25.4808 36.6677C25.2379 36.8539 25.1911 36.9006 25.1677 36.9239C25.1443 36.9472 25.1443 36.9472 24.995 37.0402C24.8189 37.1499 24.8758 37.1563 24.8763 37.1658C24.8767 37.1724 24.8495 37.1806 24.6959 37.2267L24.6958 37.2267L24.3223 37.3388C24.0758 37.4621 23.7394 37.7639 23.575 38.0103L23.5375 38.1217C23.5273 38.1522 23.5144 38.1743 23.5033 38.1934C23.4734 38.2446 23.4562 38.2741 23.5375 38.3827C23.5934 38.4573 23.6588 38.4013 23.6915 38.3733C23.7243 38.3453 23.7243 38.3453 23.6492 38.5319C23.5703 38.7285 23.5522 38.8214 23.5394 38.8871C23.5279 38.9459 23.5206 38.9831 23.4779 39.0535C23.4438 39.1102 23.4594 39.1131 23.4829 39.1174C23.5212 39.1245 23.5802 39.1353 23.4779 39.3895L23.3132 39.7997C23.2514 39.9018 23.3019 40.0529 23.4255 40.1351L23.2012 40.2843C22.9778 40.4328 22.9184 40.5168 22.8467 40.618L22.8458 40.6194C22.774 40.7221 22.7993 40.89 22.9019 40.9921L22.7153 41.1039C22.6429 41.1472 22.6042 41.1451 22.5774 41.1436C22.5349 41.1412 22.5224 41.1406 22.4535 41.3251C22.4353 41.3742 22.4231 41.4084 22.4148 41.4323ZM16.3734 38.0766C16.2939 38.2055 16.1987 38.3709 16.1388 38.5114C16.4531 38.7883 16.7818 39.0494 17.1236 39.2933C16.9819 39.0322 16.7372 38.3815 16.7372 38.3815L16.3734 38.0766ZM19.7595 31.3124L19.9882 30.9976C19.9882 30.9976 20.2497 31.1795 20.1751 31.3131C20.1454 31.3657 20.0982 31.3857 20.059 31.4023C19.9994 31.4275 19.9583 31.4449 20.0257 31.5575C20.138 31.7441 20.474 31.9677 20.474 31.9677H20.7733C20.7733 31.9677 21.2588 32.2286 21.3708 31.9677C21.397 31.9066 21.4212 31.8411 21.4453 31.776C21.5239 31.5629 21.6012 31.3535 21.7446 31.3127C21.9312 31.2595 22.6036 30.7366 22.2676 30.8117C21.9312 30.8864 21.7446 31.0356 21.7446 31.0356C21.3143 31.1428 21.1248 31.0787 21.0112 31.0404C21.0063 31.0387 21.0016 31.0371 20.997 31.0356C20.9665 31.0254 20.9027 31.0124 20.8253 30.9967L20.8252 30.9967C20.6184 30.9546 20.3145 30.8928 20.2875 30.8117C20.2497 30.6996 19.7595 30.2894 19.7595 30.2894L19.3532 30.1032L18.9423 30.3638L18.6063 30.3265H17.9335C17.9335 30.3265 17.4477 30.4604 17.3731 30.599C17.2982 30.7366 17.1862 31.0944 17.1862 31.0944H18.1204L18.6434 31.5572H18.9049L18.8677 31.1097L19.4656 31.3124H19.7595ZM17.9707 32.5837C18.0827 32.4519 18.3442 32.3401 18.3442 32.3401L18.1204 32.0832C17.8212 32.0789 17.5597 32.0832 17.5597 32.0832L16.9619 32.081L16.7375 32.3025C16.7375 32.3025 17.1491 32.489 17.1862 32.6008C17.2237 32.7129 17.4293 33.0857 17.4293 33.0857L17.6346 32.5837C17.6346 32.5837 17.859 32.7157 17.9707 32.5837ZM16.7375 29.1879C16.8124 29.4314 16.9993 29.6927 16.9993 29.6927H17.3731C17.3731 29.6927 17.3357 28.8718 17.1862 28.7603C17.0371 28.6485 16.7004 28.3131 16.5884 28.1266C16.4764 27.94 16.14 27.5302 16.14 27.5302C16.14 27.5302 16.0654 27.8158 16.14 28.1761C16.1828 28.3826 16.3484 28.6047 16.4961 28.8026C16.606 28.9499 16.7058 29.0838 16.7375 29.1879Z" fill="#FF7B29"/>
<path d="M41.1629 18.4858C41.6506 17.6428 41.7809 16.6399 41.5252 15.6977C41.2694 14.7555 40.6486 13.9513 39.7993 13.4619C38.95 12.9725 37.9418 12.838 36.9964 13.0881C36.051 13.3381 35.246 13.9522 34.7583 14.7953C33.3851 17.1692 34.2831 22.9979 34.2831 22.9979C34.2831 22.9979 39.7897 20.8598 41.1629 18.4858ZM36.2093 15.6822C36.7576 14.7344 37.9755 14.4122 38.9311 14.9629C39.3896 15.2271 39.7248 15.6613 39.8629 16.17C40.0009 16.6787 39.9306 17.2201 39.6673 17.6753C39.404 18.1304 38.9693 18.462 38.4589 18.597C37.9485 18.732 37.4041 18.6594 36.9456 18.3952C36.487 18.1309 36.1518 17.6966 36.0137 17.1878C35.8756 16.6791 35.946 16.1375 36.2093 15.6822Z" fill="#FF7B29"/>
</svg>
